<svg width="48" height="48" viewBox="0 0 200 200" xmlns="http://www.w3.org/2000/svg">
  <defs>
    <linearGradient id="ng" x1="0.5" y1="0" x2="0.5" y2="1">
      <stop offset="0%" stop-color="#F5A623"/>
      <stop offset="100%" stop-color="#E8820C"/>
    </linearGradient>
  </defs>
  <g transform="translate(100,100)">
    <path d="M0,-70 C5,-22 22,-5 0,0 C-22,-5 -5,-22 0,-70Z" fill="url(#ng)"/>
    <path d="M0,70 C-5,22 -22,5 0,0 C22,5 5,22 0,70Z" fill="url(#ng)"/>
    <path d="M-70,0 C-22,5 -5,22 0,0 C-5,-22 -22,-5 -70,0Z" fill="url(#ng)"/>
    <path d="M70,0 C22,-5 5,-22 0,0 C5,22 22,5 70,0Z" fill="url(#ng)"/>
    <line x1="0" y1="-26" x2="0" y2="-42" stroke="#F5A623" stroke-width="3.5" stroke-linecap="round"/>
    <circle cx="0" cy="-44" r="2.5" fill="#F5A623"/>
    <line x1="0" y1="26" x2="0" y2="42" stroke="#F5A623" stroke-width="3.5" stroke-linecap="round"/>
    <circle cx="0" cy="44" r="2.5" fill="#F5A623"/>
    <line x1="-26" y1="0" x2="-42" y2="0" stroke="#F5A623" stroke-width="3.5" stroke-linecap="round"/>
    <circle cx="-44" cy="0" r="2.5" fill="#F5A623"/>
    <line x1="26" y1="0" x2="42" y2="0" stroke="#F5A623" stroke-width="3.5" stroke-linecap="round"/>
    <circle cx="44" cy="0" r="2.5" fill="#F5A623"/>
    <line x1="-18" y1="-18" x2="-38" y2="-38" stroke="#E8820C" stroke-width="3" stroke-linecap="round"/>
    <circle cx="-43" cy="-43" r="6" fill="none" stroke="#E8820C" stroke-width="3"/>
    <line x1="18" y1="-18" x2="38" y2="-38" stroke="#E8820C" stroke-width="3" stroke-linecap="round"/>
    <circle cx="43" cy="-43" r="6" fill="none" stroke="#E8820C" stroke-width="3"/>
    <line x1="-18" y1="18" x2="-38" y2="38" stroke="#E8820C" stroke-width="3" stroke-linecap="round"/>
    <circle cx="-43" cy="43" r="6" fill="none" stroke="#E8820C" stroke-width="3"/>
    <line x1="18" y1="18" x2="38" y2="38" stroke="#E8820C" stroke-width="3" stroke-linecap="round"/>
    <circle cx="43" cy="43" r="6" fill="none" stroke="#E8820C" stroke-width="3"/>
  </g>
</svg>
